<?xml version="1.0" encoding="UTF-8"?>
<svg width="1234px" height="641px" viewBox="0 0 1234 641" version="1.1" xmlns="http://www.w3.org/2000/svg" xmlns:xlink="http://www.w3.org/1999/xlink">
    <!-- Generator: Sketch 52.2 (67145) - http://www.bohemiancoding.com/sketch -->
    <title>logo copy 3@1x</title>
    <desc>Created with Sketch.</desc>
    <g id="logo-copy-3" stroke="none" stroke-width="1" fill="none" fill-rule="evenodd">
        <g id="Group" transform="translate(38.000000, 20.000000)" fill-rule="nonzero">
            <path d="M264.025599,62.8051492 C275.027454,57.7316169 293.029341,57.7316169 304.018572,62.8051492 L334.745496,76.96486 C345.747351,82.0321518 346.416425,105.009699 315.001491,101.527496 C315.001491,101.527496 304.675022,100.610142 302.945528,113.253409 C301.228658,121.072765 309.813008,124.979322 309.813008,124.979322 C347.249612,137.441615 364.355193,113.228447 364.355193,113.228447 C372.914295,104.735117 388.934207,101.933129 399.936062,107.006661 L469.620788,139.120311 C480.628955,144.193844 480.812003,152.861908 470.043693,158.390997 L457.779434,164.69391 C447.011124,170.222999 432.853258,170.198037 426.320315,164.631505 L419.616947,161.143061 C403.786396,152.911832 385.816068,150.871186 367.637444,155.233301 C319.767067,166.734556 280.190688,164.712631 264.353824,149.960072 C256.362804,142.515147 253.894803,131.182386 256.798334,115.331498 C258.16173,107.861611 253.143673,100.71623 245.58187,99.3620402 C238.032691,98.0140907 230.805426,102.975294 229.435717,110.43894 C223.660217,142.040869 234.870368,160.250669 245.304141,169.967138 C258.483643,182.248456 278.435946,188.981964 304.586654,189.980445 C330.364953,190.966445 356.686086,186.148773 374.214571,181.936431 C389.12988,178.35438 391.452704,179.402785 391.452704,179.402785 C402.492431,184.376469 402.713352,192.969648 391.945042,198.504978 L303.620915,243.848503 C292.852605,249.383832 275.229438,249.383832 264.467441,243.848503 L161.537294,191.003888 C150.762672,185.474799 145.851918,176.588316 156.897957,165.667429 C167.950308,154.740301 191.386847,162.23515 199.750276,162.72815 C199.750276,162.72815 212.166024,164.375644 213.819774,152.830706 C215.505084,141.285767 204.200252,138.539944 204.200252,138.539944 C196.657385,136.586665 176.812388,132.230791 161.265877,136.02502 C148.250487,139.195197 133.177378,153.236339 133.177378,153.236339 C124.353171,161.467568 108.427938,163.732872 97.792181,158.272428 C87.1501115,152.805744 87.4467765,144.193844 98.4486313,139.120311 L264.025599,62.8051492 Z" id="Shape" fill="#FFFEFE"></path>
            <path d="M59.0176774,202.162183 C58.5599962,189.982185 67.0461685,184.611827 77.897027,190.229463 L89.682318,196.335312 C100.52682,201.952948 110.049132,207.633988 110.831004,208.965481 C110.786507,208.908417 114.969204,214.779671 116.361318,227.942437 C117.702578,240.610649 116.666439,262.592976 104.150129,295.3287 C87.4511221,338.989013 100.940004,368.275534 115.191688,385.160142 C130.307881,403.046541 149.447855,410.56631 150.255154,410.870652 C151.926962,411.511037 153.617839,411.815378 155.315074,411.815378 C160.940739,411.815378 166.248569,408.42958 168.397128,402.89437 C171.181356,395.704304 167.621613,387.632916 160.419491,384.855801 C160.279644,384.798737 146.422074,379.187442 136.016183,366.443145 C122.864205,350.344752 120.944487,329.770004 130.307881,305.2832 C144.095528,269.218742 144.140024,246.729179 144.140024,246.729179 C144.159094,234.536501 153.058451,229.159803 163.896596,234.783779 L248.281568,278.494815 C259.12607,284.11245 268,298.676455 268,310.869133 L268,345.49431 C268,357.686989 260.085929,363.685051 250.411057,358.821928 L243.189865,346.356611 C224.355012,313.842803 189.863648,311.851903 174.251634,315.345489 C166.70625,317.032047 161.970521,324.501093 163.655042,332.027203 C165.352277,339.546972 172.827737,344.276945 180.385833,342.590386 C180.627387,342.533322 205.583726,337.258071 218.945474,360.324614 C233.209872,384.944567 246.927595,389.554071 246.927595,389.554071 C258.509472,393.440765 267.987287,406.59085 267.987287,418.783529 L267.987287,502.705675 C267.987287,514.892013 259.520184,519.558581 249.165147,513.078645 L216.904979,492.877983 C206.556299,486.398047 211.978549,481.572968 215.195031,470.356718 C215.195031,470.356718 219.962544,459.660386 222.562427,437.84925 C223.471433,430.189991 217.985615,423.240862 210.313098,422.334178 C202.627868,421.421154 195.673657,426.886619 194.764651,434.545878 C192.145697,456.439439 182.159348,471.751617 154.386998,453.732068 L85.3025631,410.464863 C74.9538826,403.984927 66.1053793,388.717132 65.6476981,376.537135 L59.0176774,202.162183 Z" id="Shape" fill="#C0BCBC"></path>
            <path d="M499.339336,376.534305 C498.875313,388.714119 490.027099,403.981685 479.678756,410.461523 L447.699327,430.490692 C437.350984,436.970531 420.671592,436.58377 410.634717,429.634745 C410.634717,429.634745 407.068734,427.162008 401.86278,415.933246 C397.591229,406.701695 396.75853,397.045341 399.593518,389.436919 C402.282308,382.208919 398.589195,374.175694 391.336456,371.487385 C384.090074,368.805417 376.042776,372.489161 373.34763,379.717161 C367.931913,394.242905 369.069722,411.716913 376.44959,427.650215 C382.176775,439.988538 386.168642,443.716665 386.168642,443.716665 C395.080421,452.054226 393.910829,464.176978 383.562487,470.656816 L315.821525,513.080105 C305.473182,519.559944 297.006356,514.887105 297.006356,502.700951 L297.006356,419.902306 C297.006356,407.709811 299.784136,397.184828 303.165781,396.512751 L306.528357,395.358807 C318.872633,391.129793 335.93977,380.623831 347.209802,354.609371 C355.70841,334.985984 372.928103,322.394047 392.162798,321.740991 C409.268074,321.18304 423.951533,330.192679 432.405646,346.538104 C435.946203,353.385683 444.381246,356.080332 451.258953,352.548757 C458.130303,349.010841 460.825449,340.590855 457.278536,333.736935 C443.879085,307.798559 419.133325,292.892394 391.196614,293.830766 C361.035137,294.864243 334.337938,313.904317 321.497857,343.539118 L314.353179,360.055732 C304.812109,365.058269 297,359.180764 297,346.994609 L297,310.867289 C297,298.681134 305.87364,284.111007 316.724144,278.493456 L410.208833,230.065855 C421.05298,224.448304 432.1641,229.571308 434.891028,241.453125 C434.891028,241.453125 436.06062,246.506385 431.216985,251.337733 C425.74406,256.790435 425.74406,265.628884 431.216985,271.081586 C433.943913,273.807937 437.535322,275.171112 441.114018,275.171112 C444.69907,275.171112 448.27141,273.807937 451.017407,271.081586 C465.535598,256.600224 459.477876,228.639276 459.477876,228.639276 C456.897147,216.725756 463.654081,202.377542 474.498228,196.759991 L487.109476,190.229429 C497.953624,184.611878 506.445876,189.982156 505.981853,202.16197 L499.339336,376.534305 Z" id="Shape" fill="#F1ECEC"></path>
            <path d="M279.629214,596.821066 L276.931316,596.363133 C274.899957,595.854318 273.954106,595.555389 273.027299,595.205578 C271.605348,594.633161 270.8055,594.26427 270.024697,593.863578 L268.006034,592.699664 C266.444427,591.739275 262.045266,588.972593 247.876539,580.055608 L43.4710751,451.478025 C14.9431821,433.529571 12.8166035,426.323477 12.105628,423.957486 C10.3281891,417.896226 9.42677374,396.424228 9.27442184,392.181981 L0.907763397,171.731466 C0.698279536,166.083618 0,147.575468 0,146.246189 C0.12061192,144.217288 0.16504789,143.842037 0.215831857,143.466786 C0.317399789,142.697203 0.425315717,141.959421 0.577667616,141.221639 C1.02202732,139.281782 1.29499114,138.353194 1.60604293,137.456407 C2.31701846,135.624673 2.7042462,134.766047 3.13590992,133.926502 C3.92940939,132.463659 4.34202912,131.802199 4.76099684,131.16618 C5.82746013,129.627014 6.35434378,128.952834 6.9193154,128.297735 C8.64597026,126.472361 9.24268186,125.919024 9.85208946,125.391128 C11.0645566,124.386219 11.6676162,123.941005 12.3151118,123.502152 C12.9414474,123.0739 13.521231,122.677448 14.0544627,122.312797 L18.1489199,120.341138 L249.577802,12.2497242 C252.256656,10.996767 276.048945,0 284.656827,0 C285.748682,0 286.821493,0.114483404 287.849869,0.337090023 C293.277405,1.50736482 312.619748,10.4688713 316.434894,12.2497242 L528.197685,111.150665 C542.696507,117.930627 550.466454,121.575015 551.247258,121.988427 L553.716628,123.521233 C554.34508,123.953726 554.878311,124.348057 555.392499,124.76147 C556.738274,125.887223 557.334986,126.44056 557.887261,127.006617 C559.423476,128.660266 560.07732,129.48709 560.693076,130.352076 C561.638927,131.757678 562.007111,132.361896 562.362598,132.985194 C563.302102,134.759687 563.670286,135.592872 564.013077,136.445137 C564.628833,138.066985 564.939885,139.116417 565.200153,140.172208 C565.561988,141.959421 565.6826,142.697203 565.77782,143.447705 C565.811676,143.702113 565.885736,144.634941 566,146.246189 C566,147.804435 565.104933,170.758357 565.073193,171.731466 L556.725578,392.181981 C555.436935,425.929145 550.269666,431.360746 548.5811,433.14796 C544.251766,437.708215 526.12189,449.213797 522.528925,451.471664 L478.004082,479.481937 C472.221058,483.119966 466.342814,486.929719 461.924609,489.791804 C455.951145,493.658799 454.63711,494.504704 453.589691,495.04532 C452.078868,495.910306 443.947085,500.903054 432.558781,508.070987 L318.129809,580.055608 C313.394204,583.032176 297.911442,592.775986 297.289339,593.144877 C295.44842,594.156147 294.547004,594.569559 293.620197,594.944811 C292.128418,595.523588 291.119087,595.847957 290.109755,596.108725 C288.57354,596.477616 287.576905,596.668422 286.561226,596.795626 C285.513806,596.910109 284.847267,596.960991 284.180727,596.992791 C281.851013,597.024592 280.740114,596.94827 279.629214,596.821066 Z M303.116799,543.077468 L413.222785,473.808649 C418.809022,470.297824 431.517709,462.328507 434.945627,460.420451 C435.770867,459.937076 438.068841,458.429711 441.192055,456.407171 C445.51504,453.602328 451.285368,449.868897 456.94778,446.300831 L499.790404,419.35907 C508.09993,414.130994 514.904982,409.475336 518.256724,407.001222 C519.164487,402.415526 520.338866,392.487271 520.694354,383.112352 L528.737265,170.987324 C529.187972,159.170093 529.51172,150.361231 529.594244,147.906198 C527.112178,145.909099 519.634239,142.398274 508.06819,136.992113 L304.310222,41.837324 C295.270676,37.6141585 287.678473,34.3513814 283.920459,32.8758176 C279.67365,34.1860165 270.564276,37.6777603 261.664386,41.837324 L37.1484713,146.704122 C36.4311478,150.113184 36.7485476,158.902965 37.2056033,170.987324 L45.2548619,383.118712 C45.6293937,392.919763 46.2514973,401.162569 46.714901,405.315772 C50.2316906,408.381383 58.2301653,414.372681 66.158812,419.35907 L262.832417,543.071108 C272.240147,548.992444 280.187838,553.991553 281.908145,555.066425 C284.212467,554.951941 292.852089,549.53306 303.116799,543.077468 Z" id="Shape" fill="#8CBDD3"></path>
        </g>
        <text id="Alpha" font-family="MuseoSans-300, Museo Sans" font-size="200" font-weight="300" fill="#F1ECEC">
            <tspan x="674" y="372">Alpha</tspan>
        </text>
    </g>
</svg>