<?xml version="1.0" encoding="UTF-8"?>
<svg width="90px" height="95px" viewBox="0 0 90 95" version="1.1" xmlns="http://www.w3.org/2000/svg" xmlns:xlink="http://www.w3.org/1999/xlink">
    <!-- Generator: Sketch 49.1 (51147) - http://www.bohemiancoding.com/sketch -->
    <title>incubie-logo--no-text</title>
    <desc>Created with Sketch.</desc>
    <defs></defs>
    <g id="Page-1" stroke="none" stroke-width="1" fill="none" fill-rule="evenodd">
        <g id="incubie-logo--no-text" fill-rule="nonzero">
            <path d="M41.831,10.46 C43.574,9.647 46.426,9.647 48.167,10.46 L53.035,12.729 C54.778,13.541 54.884,17.223 49.907,16.665 C49.907,16.665 48.271,16.518 47.997,18.544 C47.725,19.797 49.085,20.423 49.085,20.423 C55.016,22.42 57.726,18.54 57.726,18.54 C59.082,17.179 61.62,16.73 63.363,17.543 L74.403,22.689 C76.147,23.502 76.176,24.891 74.47,25.777 L72.527,26.787 C70.821,27.673 68.578,27.669 67.543,26.777 L66.481,26.218 C63.973,24.899 61.126,24.572 58.246,25.271 C50.662,27.114 44.392,26.79 41.883,24.426 C40.617,23.233 40.226,21.417 40.686,18.877 C40.902,17.68 40.107,16.535 38.909,16.318 C37.713,16.102 36.568,16.897 36.351,18.093 C35.436,23.157 37.212,26.075 38.865,27.632 C40.953,29.6 44.114,30.679 48.257,30.839 C52.341,30.997 56.511,30.225 59.288,29.55 C61.651,28.976 62.019,29.144 62.019,29.144 C63.768,29.941 63.803,31.318 62.097,32.205 L48.104,39.471 C46.398,40.358 43.606,40.358 41.901,39.471 L25.594,31.003 C23.887,30.117 23.109,28.693 24.859,26.943 C26.61,25.192 30.323,26.393 31.648,26.472 C31.648,26.472 33.615,26.736 33.877,24.886 C34.144,23.036 32.353,22.596 32.353,22.596 C31.158,22.283 28.014,21.585 25.551,22.193 C23.489,22.701 21.101,24.951 21.101,24.951 C19.703,26.27 17.18,26.633 15.495,25.758 C13.809,24.882 13.856,23.502 15.599,22.689 L41.831,10.46 Z" id="Shape" fill="#FFFEFE"></path>
            <path d="M9.922,31.251 C9.85,29.33 11.185,28.483 12.892,29.369 L14.746,30.332 C16.452,31.218 17.95,32.114 18.073,32.324 C18.066,32.315 18.724,33.241 18.943,35.317 C19.154,37.315 18.991,40.782 17.022,45.945 C14.395,52.831 16.517,57.45 18.759,60.113 C21.137,62.934 24.148,64.12 24.275,64.168 C24.538,64.269 24.804,64.317 25.071,64.317 C25.956,64.317 26.791,63.783 27.129,62.91 C27.567,61.776 27.007,60.503 25.874,60.065 C25.852,60.056 23.672,59.171 22.035,57.161 C19.966,54.622 19.664,51.377 21.137,47.515 C23.306,41.827 23.313,38.28 23.313,38.28 C23.316,36.357 24.716,35.509 26.421,36.396 L39.696,43.29 C41.402,44.176 42.798,46.473 42.798,48.396 L42.798,53.857 C42.798,55.78 41.553,56.726 40.031,55.959 L38.895,53.993 C35.932,48.865 30.506,48.551 28.05,49.102 C26.863,49.368 26.118,50.546 26.383,51.733 C26.65,52.919 27.826,53.665 29.015,53.399 C29.053,53.39 32.979,52.558 35.081,56.196 C37.325,60.079 39.483,60.806 39.483,60.806 C41.305,61.419 42.796,63.493 42.796,65.416 L42.796,78.652 C42.796,80.574 41.464,81.31 39.835,80.288 L34.76,77.102 C33.132,76.08 33.985,75.319 34.491,73.55 C34.491,73.55 35.241,71.863 35.65,68.423 C35.793,67.215 34.93,66.119 33.723,65.976 C32.514,65.832 31.42,66.694 31.277,67.902 C30.865,71.355 29.294,73.77 24.925,70.928 L14.057,64.104 C12.429,63.082 11.037,60.674 10.965,58.753 L9.922,31.251 Z" id="Shape" fill="#C0BCBC"></path>
            <path d="M79.032,58.753 C78.959,60.674 77.567,63.082 75.939,64.104 L70.908,67.263 C69.28,68.285 66.656,68.224 65.077,67.128 C65.077,67.128 64.516,66.738 63.697,64.967 C63.025,63.511 62.894,61.988 63.34,60.788 C63.763,59.648 63.182,58.381 62.041,57.957 C60.901,57.534 59.635,58.115 59.211,59.255 C58.359,61.546 58.538,64.302 59.699,66.815 C60.6,68.761 61.228,69.349 61.228,69.349 C62.63,70.664 62.446,72.576 60.818,73.598 L50.161,80.289 C48.533,81.311 47.201,80.574 47.201,78.652 L47.201,65.593 C47.201,63.67 47.638,62.01 48.17,61.904 L48.699,61.722 C50.641,61.055 53.326,59.398 55.099,55.295 C56.436,52.2 59.145,50.214 62.171,50.111 C64.862,50.023 67.172,51.444 68.502,54.022 C69.059,55.102 70.386,55.527 71.468,54.97 C72.549,54.412 72.973,53.084 72.415,52.003 C70.307,47.912 66.414,45.561 62.019,45.709 C57.274,45.872 53.074,48.875 51.054,53.549 L49.93,56.154 C48.429,56.943 47.2,56.016 47.2,54.094 L47.2,48.396 C47.2,46.474 48.596,44.176 50.303,43.29 L65.01,35.652 C66.716,34.766 68.464,35.574 68.893,37.448 C68.893,37.448 69.077,38.245 68.315,39.007 C67.454,39.867 67.454,41.261 68.315,42.121 C68.744,42.551 69.309,42.766 69.872,42.766 C70.436,42.766 70.998,42.551 71.43,42.121 C73.714,39.837 72.761,35.427 72.761,35.427 C72.355,33.548 73.418,31.285 75.124,30.399 L77.108,29.369 C78.814,28.483 80.15,29.33 80.077,31.251 L79.032,58.753 Z" id="Shape" fill="#F1ECEC"></path>
            <path d="M44.472,93.992 L44.047,93.92 C43.727,93.84 43.578,93.793 43.432,93.738 C43.208,93.648 43.082,93.59 42.959,93.527 L42.641,93.344 C42.395,93.193 41.702,92.758 39.47,91.356 L7.27,71.14 C2.776,68.318 2.441,67.185 2.329,66.813 C2.049,65.86 1.907,62.484 1.883,61.817 L0.565,27.156 C0.532,26.268 0.422,23.358 0.422,23.149 C0.441,22.83 0.448,22.771 0.456,22.712 C0.472,22.591 0.489,22.475 0.513,22.359 C0.583,22.054 0.626,21.908 0.675,21.767 C0.787,21.479 0.848,21.344 0.916,21.212 C1.041,20.982 1.106,20.878 1.172,20.778 C1.34,20.536 1.423,20.43 1.512,20.327 C1.784,20.04 1.878,19.953 1.974,19.87 C2.165,19.712 2.26,19.642 2.362,19.573 C2.4606667,19.5056667 2.552,19.4433333 2.636,19.386 L3.281,19.076 L39.738,2.081 C40.16,1.884 43.908,0.155 45.264,0.155 C45.436,0.155 45.605,0.173 45.767,0.208 C46.622,0.392 49.669,1.801 50.27,2.081 L83.629,17.631 C85.913,18.697 87.137,19.27 87.26,19.335 L87.649,19.576 C87.748,19.644 87.832,19.706 87.913,19.771 C88.125,19.948 88.219,20.035 88.306,20.124 C88.548,20.384 88.651,20.514 88.748,20.65 C88.897,20.871 88.955,20.966 89.011,21.064 C89.159,21.343 89.217,21.474 89.271,21.608 C89.368,21.863 89.417,22.028 89.458,22.194 C89.515,22.475 89.534,22.591 89.549,22.709 C89.554333,22.749 89.566,22.8956667 89.584,23.149 C89.584,23.394 89.443,27.003 89.438,27.156 L88.123,61.817 C87.92,67.123 87.106,67.977 86.84,68.258 C86.158,68.975 83.302,70.784 82.736,71.139 L75.722,75.543 C74.811,76.115 73.885,76.714 73.189,77.164 C72.248,77.772 72.041,77.905 71.876,77.99 C71.638,78.126 70.357,78.911 68.563,80.038 L50.537,91.356 C49.791,91.824 47.352,93.356 47.254,93.414 C46.964,93.573 46.822,93.638 46.676,93.697 C46.441,93.788 46.282,93.839 46.123,93.88 C45.881,93.938 45.724,93.968 45.564,93.988 C45.399,94.006 45.294,94.014 45.189,94.019 C44.822,94.024 44.647,94.012 44.472,93.992 Z M44.957,87.485 L45.008,87.488 L45.084,87.473 C45.194,87.409 46.555,86.557 48.172,85.542 L65.517,74.651 C66.397,74.099 68.399,72.846 68.939,72.546 C69.069,72.47 69.431,72.233 69.923,71.915 C70.604,71.474 71.513,70.887 72.405,70.326 L79.154,66.09 C80.463,65.268 81.535,64.536 82.063,64.147 C82.206,63.426 82.391,61.865 82.447,60.391 L83.714,27.039 C83.785,25.181 83.836,23.796 83.849,23.41 L83.826,23.33 C83.819,23.315 83.811,23.302 83.804,23.288 L83.738,23.229 C83.458,23.096 82.28,22.544 80.458,21.694 L48.36,6.733 C46.936,6.069 45.74,5.556 45.148,5.324 C44.479,5.53 43.044,6.079 41.642,6.733 L6.274,23.221 C6.258,23.232 6.242,23.242 6.226,23.252 L6.207,23.274 C6.206,23.275 6.204,23.278 6.201,23.281 L6.149,23.412 C6.161,23.757 6.211,25.139 6.283,27.039 L7.551,60.392 C7.61,61.933 7.708,63.229 7.781,63.882 C8.335,64.364 9.595,65.306 10.844,66.09 L41.826,85.541 C43.308,86.472 44.56,87.258 44.831,87.427 L44.922,87.476 L44.921,87.477 L44.957,87.485 Z" id="Shape" fill="#8CBDD3"></path>
        </g>
    </g>
</svg>